<svg width="520" height="520" xmlns="http://www.w3.org/2000/svg">
 <defs>
  <linearGradient y2="0.00781" x2="0.99219" y1="0.99609" x1="0" id="imagebot_29">
   <stop offset="0" stop-opacity="0.99609" stop-color="#ff5656"/>
   <stop offset="1" stop-opacity="0.99609" stop-color="#7f0000"/>
  </linearGradient>
  <radialGradient r="1.08845" cy="0.92578" cx="0.48438" spreadMethod="pad" id="imagebot_31">
   <stop offset="0" stop-opacity="0.99609" stop-color="#ff5656"/>
   <stop offset="1" stop-opacity="0.99609" stop-color="#7f0000"/>
  </radialGradient>
 </defs>
 <g>
  <title>Layer 1</title>
  <ellipse opacity="0.73" ry="205.33115" rx="205.33115" id="imagebot_27" cy="250.8072" cx="267.3072" stroke-linecap="round" stroke-linejoin="round" stroke-width="10" stroke="#000000" fill="#bab8b8"/>
  <path d="M445.90601,153.715L391.90601,86.19L180.616,57.19L180.616,281.715L244.688,281.715L475.76099,279.715L473.83301,226.715L445.90601,153.715z" fill="#000000" id="imagebot_26"/>
  <path fill="#ffffff" d="M 441.906 148.897 L 396.906 87.18 L 190.396 87.18 L 190.396 273.897 L 475.651 273.897 L 468.279 196.897 L 441.906 148.897 Z" id="imagebot_25"/>
  <path d="M 435.362 119.028 L 326.733 46.18 L 190.046 47.18 L 190.046 269.789 L 470.933 269.789 L 462.276 181.326 L 435.362 119.028 Z" fill="#014201" id="imagebot_24"/>
  <path fill="url(#imagebot_29)" d="M 246.883 189.98 C 277.525 189.98 302.371 165.139 302.371 134.493 S 277.525 79.0004 246.883 79.0004 C 216.235 79.0004 191.39 103.846 191.39 134.493 S 216.235 189.98 246.883 189.98 Z" id="imagebot_23"/>
  <path transform="rotate(333.697 393.212 192.585) matrix(1 0 0 1 64 -54)" fill="#ffffff" d="M 357.342 222.372 L 353.127 218.22 L 301.082 271.952 L 304.142 274.951 L 357.342 222.372 Z" id="imagebot_19"/>
  <path d="M 152.264 386.166 L 164.306 392.983 L 187.7 277.125 L 197.193 277.125 L 171.341 427.983 L 243.566 448.316 L 317.791 458.65 L 286.514 277.125 L 296.488 277.125 L 309.545 333.917 C 315.725 357.905 331.307 363.449 343.275 343.004 L 390.637 264.996 C 405.412 238.796 378.669 211.185 363.154 234.161 L 335.229 279.708 C 335.229 280.464 329.91 254.717 329.91 254.717 C 323.409 224.083 302.132 193.974 270.217 193.974 L 209.933 193.974 C 181.564 193.974 159.23 227.845 154.612 249.107 L 137.004 363.77 C 138.047 367.003 135.091 365.235 140.134 373.468 C 145.177 381.701 151.221 382.933 152.264 386.166 Z" fill="url(#imagebot_31)" id="imagebot_22"/>
  <ellipse id="imagebot_28" ry="201.01899" rx="201.01899" cy="246.8332" cx="270.3332" fill-opacity="0" stroke-linecap="round" stroke-linejoin="round" stroke-width="34" stroke="#0a5daf" fill="#000000"/>
 </g>
 <metadata>image/svg+xmlOpenclipartTeacher silhouette black and white with desk and blackboard2010-05-18T22:09:42Teacher silhouette black and white with desk and blackboard - Silhouette en noir et blanc d'une enseignante avec pupitre et tableau noir - Lehrerin Silhouette schwarz und weiß mit Schreibtisch und Tafel - Insegnante sagoma in bianco e nero con scrivania e lavagnahttps://openclipart.org/detail/60775/teacher-silhouette-black-and-white-with-desk-and-blackboard-by-palomaironiquepalomaironiqueDozentFormelFrauGrafikHerrinHochschuleIkoneLehrLehrerLehrerinMasterPersonSchattenbildSchreibtischSchuleStickStockSymbolTafelTischTurnhalleUniversitätVektorWeißZeichenZeigerbaguettebastonebiancoblackblackboardblancbureaubwcollegecollègedeskdocentedomaindonnaenseignantenseignanteenseignementfemmeformulaformulaeformulegraficagraphicgraphiquegymnaseiconiconaicôneinsegnamentoinsegnantelavagnamaîtremaîtresseneronoirpeoplepersonapersonnepointerprofesseurpublicpuntatorepupitresagomaschoolschwarzscrivaniascuolasegnosignsignesilhouettesimbolosticksymbolsymboletableautavoloteachteacheruniversityuniversitàuniversitévecteurvectorvettoreweisswhitewomanécole</metadata>
</svg>