<?xml version="1.0" encoding="UTF-8"?>
<svg xmlns="http://www.w3.org/2000/svg" xmlns:xlink="http://www.w3.org/1999/xlink" width="2001" height="2001" viewBox="0 0 2001 2001">
<path fill-rule="evenodd" fill="rgb(58.789062%, 58.789062%, 58.789062%)" fill-opacity="1" d="M 909.996094 1171.613281 C 910.089844 1171.613281 910.183594 1171.609375 910.277344 1171.609375 C 1084.960938 1171.453125 1227.839844 1028.492188 1227.839844 853.769531 L 1227.839844 441.761719 C 1227.839844 323.828125 1162.738281 220.378906 1066.710938 165.53125 C 1209.78125 196.398438 1317.839844 324.308594 1317.839844 476.261719 L 1317.839844 888.269531 C 1317.839844 1063.082031 1174.808594 1206.109375 1000 1206.109375 C 943.113281 1206.109375 889.601562 1190.953125 843.28125 1164.496094 C 864.8125 1169.144531 887.128906 1171.613281 909.996094 1171.613281 "/>
<path fill-rule="evenodd" fill="rgb(80.076599%, 80.076599%, 80.076599%)" fill-opacity="1" d="M 1000 158.421875 C 1022.871094 158.421875 1045.179688 160.890625 1066.710938 165.53125 C 1162.738281 220.378906 1227.839844 323.828125 1227.839844 441.761719 L 1227.839844 853.769531 C 1227.839844 1028.492188 1084.960938 1171.453125 910.277344 1171.609375 C 910.183594 1171.609375 910.089844 1171.613281 909.996094 1171.613281 C 887.128906 1171.613281 864.8125 1169.144531 843.28125 1164.496094 C 764.359375 1119.421875 706.351562 1041.507812 688.183594 949.710938 C 684.246094 929.820312 682.160156 909.28125 682.160156 888.269531 L 682.160156 476.261719 C 682.160156 332.570312 778.789062 210.390625 910.269531 171.421875 C 938.753906 162.96875 968.867188 158.421875 1000 158.421875 "/>
<path fill-rule="nonzero" fill="rgb(0%, 0%, 0%)" fill-opacity="1" d="M 1000 130.609375 C 1095.078125 130.609375 1181.5 169.488281 1244.140625 232.121094 C 1306.769531 294.75 1345.648438 381.171875 1345.648438 476.261719 L 1345.648438 888.269531 C 1345.648438 983.351562 1306.769531 1069.773438 1244.140625 1132.40625 C 1181.5 1195.039062 1095.078125 1233.917969 1000 1233.917969 C 904.917969 1233.917969 818.496094 1195.039062 755.863281 1132.40625 C 693.230469 1069.773438 654.351562 983.351562 654.351562 888.269531 L 654.351562 476.261719 C 654.351562 381.171875 693.230469 294.75 755.863281 232.121094 C 818.496094 169.488281 904.917969 130.609375 1000 130.609375 Z M 1204.808594 271.441406 C 1152.230469 218.859375 1079.730469 186.21875 1000 186.21875 C 920.273438 186.21875 847.769531 218.859375 795.1875 271.441406 C 742.605469 324.019531 709.96875 396.53125 709.96875 476.261719 L 709.96875 888.269531 C 709.96875 968 742.605469 1040.503906 795.1875 1093.085938 C 847.769531 1145.664062 920.273438 1178.300781 1000 1178.300781 C 1079.730469 1178.300781 1152.230469 1145.664062 1204.808594 1093.085938 C 1257.390625 1040.503906 1290.03125 968 1290.03125 888.269531 L 1290.03125 476.261719 C 1290.03125 396.53125 1257.390625 324.019531 1204.808594 271.441406 "/>
<path fill-rule="nonzero" fill="rgb(0%, 0%, 0%)" fill-opacity="1" d="M 1000 116.441406 C 1048.5 116.441406 1094.871094 126.179688 1137.261719 143.800781 C 1181.308594 162.121094 1220.96875 188.910156 1254.160156 222.101562 C 1287.351562 255.289062 1314.140625 294.949219 1332.449219 338.988281 C 1350.078125 381.378906 1359.820312 427.761719 1359.820312 476.261719 L 1359.820312 888.269531 C 1359.820312 936.769531 1350.078125 983.140625 1332.449219 1025.53125 C 1314.140625 1069.578125 1287.351562 1109.238281 1254.160156 1142.425781 C 1220.96875 1175.617188 1181.308594 1202.410156 1137.261719 1220.722656 C 1094.871094 1238.347656 1048.5 1248.089844 1000 1248.089844 C 951.503906 1248.089844 905.128906 1238.347656 862.738281 1220.722656 C 818.691406 1202.410156 779.03125 1175.617188 745.84375 1142.425781 C 712.65625 1109.238281 685.859375 1069.578125 667.546875 1025.53125 C 649.921875 983.140625 640.179688 936.769531 640.179688 888.269531 L 640.179688 476.261719 C 640.179688 427.761719 649.921875 381.378906 667.546875 338.988281 C 685.863281 294.949219 712.65625 255.289062 745.84375 222.101562 C 779.035156 188.910156 818.691406 162.121094 862.738281 143.800781 C 905.128906 126.179688 951.503906 116.441406 1000 116.441406 Z M 1126.410156 169.929688 C 1087.449219 153.738281 1044.75 144.78125 1000 144.78125 C 955.253906 144.78125 912.550781 153.738281 873.589844 169.941406 C 833.082031 186.78125 796.539062 211.488281 765.886719 242.140625 C 735.230469 272.800781 710.523438 309.339844 693.679688 349.851562 C 677.480469 388.800781 668.527344 431.511719 668.527344 476.261719 L 668.527344 888.269531 C 668.527344 933.019531 677.480469 975.71875 693.679688 1014.679688 C 710.523438 1055.1875 735.230469 1091.730469 765.886719 1122.382812 C 796.539062 1153.039062 833.082031 1177.746094 873.589844 1194.589844 C 912.546875 1210.789062 955.253906 1219.742188 1000 1219.742188 C 1044.75 1219.742188 1087.449219 1210.789062 1126.410156 1194.589844 C 1166.921875 1177.746094 1203.460938 1153.039062 1234.109375 1122.382812 C 1264.769531 1091.730469 1289.480469 1055.1875 1306.320312 1014.679688 C 1322.519531 975.71875 1331.46875 933.019531 1331.46875 888.269531 L 1331.46875 476.261719 C 1331.46875 431.511719 1322.519531 388.800781 1306.320312 349.851562 C 1289.480469 309.339844 1264.769531 272.800781 1234.109375 242.140625 C 1203.460938 211.488281 1166.921875 186.78125 1126.410156 169.929688 Z M 1194.789062 281.460938 C 1169.261719 255.929688 1138.851562 235.359375 1105.148438 221.339844 C 1072.738281 207.851562 1037.21875 200.398438 1000 200.398438 C 962.78125 200.398438 927.261719 207.851562 894.851562 221.339844 C 861.15625 235.359375 830.738281 255.929688 805.207031 281.460938 C 779.675781 306.988281 759.101562 337.410156 745.078125 371.109375 C 731.59375 403.519531 724.140625 439.039062 724.140625 476.261719 L 724.140625 888.269531 C 724.140625 925.488281 731.59375 961.011719 745.078125 993.421875 C 759.101562 1027.117188 779.675781 1057.53125 805.207031 1083.0625 C 830.738281 1108.59375 861.15625 1129.171875 894.851562 1143.191406 C 927.261719 1156.675781 962.78125 1164.128906 1000 1164.128906 C 1037.21875 1164.128906 1072.738281 1156.675781 1105.148438 1143.191406 C 1138.851562 1129.171875 1169.261719 1108.59375 1194.789062 1083.0625 C 1220.320312 1057.53125 1240.898438 1027.117188 1254.921875 993.421875 C 1268.410156 961.011719 1275.859375 925.488281 1275.859375 888.269531 L 1275.859375 476.261719 C 1275.859375 439.039062 1268.410156 403.519531 1254.921875 371.109375 C 1240.898438 337.410156 1220.320312 306.988281 1194.789062 281.460938 Z M 1116 195.199219 C 1153.238281 210.699219 1186.769531 233.359375 1214.828125 261.421875 C 1242.898438 289.488281 1265.558594 323.019531 1281.050781 360.261719 C 1295.960938 396.089844 1304.210938 435.28125 1304.210938 476.261719 L 1304.210938 888.269531 C 1304.210938 929.238281 1295.960938 968.429688 1281.050781 1004.269531 C 1265.558594 1041.507812 1242.898438 1075.039062 1214.828125 1103.105469 C 1186.769531 1131.171875 1153.238281 1153.828125 1116 1169.324219 C 1080.160156 1184.234375 1040.96875 1192.476562 1000 1192.476562 C 959.03125 1192.476562 919.835938 1184.234375 884 1169.324219 C 846.761719 1153.828125 813.230469 1131.171875 785.164062 1103.105469 C 757.101562 1075.039062 734.441406 1041.507812 718.949219 1004.269531 C 704.035156 968.429688 695.796875 929.238281 695.796875 888.269531 L 695.796875 476.261719 C 695.796875 435.28125 704.035156 396.089844 718.949219 360.261719 C 734.441406 323.019531 757.101562 289.488281 785.164062 261.421875 C 813.230469 233.359375 846.761719 210.699219 884 195.199219 C 919.835938 180.289062 959.03125 172.050781 1000 172.050781 C 1040.96875 172.050781 1080.160156 180.289062 1116 195.199219 "/>
<path fill-rule="evenodd" fill="rgb(0%, 0%, 0%)" fill-opacity="1" d="M 695.796875 479.589844 L 870.449219 479.589844 C 882.921875 479.589844 893.121094 489.789062 893.121094 502.261719 C 893.121094 514.730469 882.921875 524.929688 870.449219 524.929688 L 695.796875 524.929688 Z M 695.796875 839.589844 L 870.449219 839.589844 C 882.921875 839.589844 893.121094 849.789062 893.121094 862.261719 C 893.121094 874.730469 882.921875 884.941406 870.449219 884.941406 L 695.796875 884.941406 Z M 695.796875 719.589844 L 870.449219 719.589844 C 882.921875 719.589844 893.121094 729.789062 893.121094 742.261719 C 893.121094 754.730469 882.921875 764.941406 870.449219 764.941406 L 695.796875 764.941406 Z M 695.796875 599.589844 L 870.449219 599.589844 C 882.921875 599.589844 893.121094 609.789062 893.121094 622.261719 C 893.121094 634.730469 882.921875 644.941406 870.449219 644.941406 L 695.796875 644.941406 L 695.796875 599.589844 "/>
<path fill-rule="evenodd" fill="rgb(0%, 0%, 0%)" fill-opacity="1" d="M 1307.75 479.589844 L 1133.089844 479.589844 C 1120.628906 479.589844 1110.421875 489.789062 1110.421875 502.261719 C 1110.421875 514.730469 1120.628906 524.929688 1133.089844 524.929688 L 1307.75 524.929688 Z M 1307.75 839.589844 L 1133.089844 839.589844 C 1120.628906 839.589844 1110.421875 849.789062 1110.421875 862.261719 C 1110.421875 874.730469 1120.628906 884.941406 1133.089844 884.941406 L 1307.75 884.941406 Z M 1307.75 719.589844 L 1133.089844 719.589844 C 1120.628906 719.589844 1110.421875 729.789062 1110.421875 742.261719 C 1110.421875 754.730469 1120.628906 764.941406 1133.089844 764.941406 L 1307.75 764.941406 Z M 1307.75 599.589844 L 1133.089844 599.589844 C 1120.628906 599.589844 1110.421875 609.789062 1110.421875 622.261719 C 1110.421875 634.730469 1120.628906 644.941406 1133.089844 644.941406 L 1307.75 644.941406 L 1307.75 599.589844 "/>
<path fill-rule="nonzero" fill="rgb(0%, 0%, 0%)" fill-opacity="1" d="M 1541.609375 726.28125 L 1541.609375 904.261719 C 1541.609375 1053.257812 1480.691406 1188.671875 1382.550781 1286.8125 C 1297.441406 1371.921875 1184.300781 1429.023438 1058.578125 1442.691406 L 1058.578125 1726.316406 L 1288.640625 1726.316406 C 1332.429688 1726.316406 1368.261719 1762.148438 1368.261719 1805.941406 C 1368.261719 1849.734375 1332.429688 1885.5625 1288.640625 1885.5625 L 711.363281 1885.5625 C 667.570312 1885.5625 631.738281 1849.734375 631.738281 1805.941406 C 631.738281 1762.148438 667.570312 1726.316406 711.363281 1726.316406 L 941.417969 1726.316406 L 941.417969 1442.691406 C 815.699219 1429.023438 702.5625 1371.921875 617.453125 1286.8125 C 519.308594 1188.671875 458.394531 1053.257812 458.394531 904.261719 L 458.394531 726.28125 L 458.710938 726.28125 C 460.449219 700.519531 481.890625 680.160156 508.09375 680.160156 C 534.296875 680.160156 555.738281 700.519531 557.476562 726.28125 L 557.605469 726.28125 L 557.605469 745.03125 L 620.375 745.03125 L 620.375 826.03125 L 557.605469 826.03125 L 557.605469 904.261719 C 557.605469 1025.871094 607.390625 1136.457031 687.597656 1216.664062 C 767.804688 1296.871094 878.394531 1346.65625 1000 1346.65625 C 1121.609375 1346.65625 1232.191406 1296.871094 1312.398438 1216.664062 C 1392.609375 1136.457031 1442.390625 1025.871094 1442.390625 904.261719 L 1442.390625 826.03125 L 1379.628906 826.03125 L 1379.628906 745.03125 L 1442.390625 745.03125 L 1442.390625 726.28125 L 1442.519531 726.28125 C 1444.261719 700.519531 1465.699219 680.160156 1491.910156 680.160156 C 1518.109375 680.160156 1539.550781 700.519531 1541.289062 726.28125 L 1541.609375 726.28125 "/>
</svg>
